<?xml version="1.0" encoding="utf-8"?>
<!-- Generator: Adobe Illustrator 17.0.0, SVG Export Plug-In . SVG Version: 6.00 Build 0)  -->
<!DOCTYPE svg PUBLIC "-//W3C//DTD SVG 1.1//EN" "http://www.w3.org/Graphics/SVG/1.1/DTD/svg11.dtd">
<svg version="1.1" id="Layer_1" xmlns="http://www.w3.org/2000/svg" xmlns:xlink="http://www.w3.org/1999/xlink" x="0px" y="0px"
	 width="1000px" height="1000px" viewBox="0 0 1000 1000" enable-background="new 0 0 1000 1000" xml:space="preserve">
<g>
	<g>
		<path fill="#FFFFFF" d="M277.598,573.825c-4.25,1.306-8.868,0.506-12.464-2.109L44.307,411.237l-0.579-0.421
			c-11.096-8.063-5.393-25.614,8.324-25.614h321.646c6.14,0,11.581-3.958,13.472-9.8L486.575,69.59
			c4.238-13.044,22.692-13.046,26.933-0.002l79.511,244.577c-0.124,0.124-4.34,2.851-4.34,2.851
			c-41.779,27.646-76.492,62.359-109.965,95.956l-35.085,36.697l-9.051,8.678c-36.82,35.457-71.657,68.93-113.436,94.965
			c-12.646,7.935-25.167,14.133-37.069,18.348C281.915,572.439,279.757,573.161,277.598,573.825z"/>
		<path fill="#FFFFFF" d="M956.28,410.81l-17.618,12.813l-16.794,12.218l-27.136,19.632L726.788,577.609l-22.698,16.474
			l-8.054,5.903c-4.942,3.569-7.001,9.976-5.125,15.788l14.049,43.427l7.047,21.554l78.297,240.841
			c3.112,9.61-4.119,17.984-12.584,18.533c-3.066,0.229-6.269-0.549-9.198-2.7l-31.072-22.56L508.324,748.436
			c-4.942-3.615-11.669-3.615-16.611,0L344.041,855.654l-28.326,20.547l-84.292,61.228c-11.074,8.054-25.992-2.791-21.782-15.833
			l76.375-234.846c1.693-5.171,6.224-8.923,11.578-9.61h0.137c1.556-0.091,3.341-0.366,4.942-0.595
			c49.331-7.322,90.241-31.85,120.352-52.442c39.812-27.136,74.545-59.261,100.446-84.201l1.007-0.961l4.576-5.079
			c10.022-11.166,26.404-29.516,28.006-31.255l12.905-12.767c28.646-28.921,58.391-58.62,91.248-82.965
			c2.563-1.968,4.942-3.569,7.322-5.308c7.871-5.537,15.513-10.388,22.926-14.552c2.105-1.236,4.485-1.83,6.91-1.83h249.581
			C961.68,385.184,967.354,402.756,956.28,410.81z"/>
	</g>
	<g>
		<g>
			<g>
				<g>
					<path fill="#FFFFFF" d="M379.781,329.206c-30.549-21.313-63.968-36.97-102.031-44.43c-33.473-6.449-66.454-5.957-98.561,6.202
						c-36.452,13.881-65.17,36.342-86.32,66.4c-3.47,4.918,0,11.695,6.012,11.695h45.36c1.147,0,2.268-0.273,3.279-0.765
						c29.265-14.674,59.76-20.166,84.844-20.412c42.436-0.136,78.45,6.968,110.475,20.603c0.902,0.383,1.858,0.574,2.842,0.574
						h21.177c3.197,0,6.039-2.049,7.023-5.082l8.635-26.396c0.246-0.765,0.383-1.558,0.383-2.35
						C382.896,332.896,381.776,330.6,379.781,329.206z"/>
				</g>
			</g>
			<g>
				<path fill="#FFFFFF" d="M915.35,577.863c-26.779,42.654-64.213,71.783-114.054,83.56c-13.198,3.197-26.642,4.071-37.517,4.454
					h-0.355c-12.843-0.464-25.33-1.366-37.545-3.061c-1.722-0.246-3.169-1.448-3.716-3.115l-1.83-5.465l-12.624-38.911
					c-0.601-1.858,0.054-3.908,1.639-5.083l4.181-3.115l13.006-9.564h0.137c16.477,1.858,33.473,1.995,51.07,0.246
					c35.468-3.334,68.804-13.252,98.069-34.211c39.048-27.762,55.415-69.925,48.338-109.6c-1.066-5.356-2.487-10.684-4.235-15.931
					c-0.055-0.218-0.137-0.464-0.219-0.683c-6.585-18.964-18.963-36.807-37.08-51.453c-0.355-0.246-0.601-0.492-0.984-0.738
					c-0.246-0.191-0.492-0.383-0.738-0.574c-7.596-5.957-15.521-11.203-23.691-15.548c-28.145-15.357-59.377-21.313-92.468-22.188
					c-10.056-0.246-19.975,0.492-29.893,2.487c-28.883,5.82-54.049,19.209-77.494,35.823c-2.705,1.858-5.328,3.716-7.924,5.711
					c-39.048,28.883-72.521,63.968-106.732,98.069c-1.011,0.984-28.391,31.615-28.391,31.615l-4.481,4.946l-0.246,0.246
					c-30.686,29.593-62.519,57.929-97.686,81.948c-34.348,23.445-70.799,43.146-112.306,49.212
					c-1.366,0.273-2.733,0.383-4.099,0.519c-84.188,11.148-156.572-12.023-207.916-83.068
					c-28.882-39.813-38.31-82.603-31.424-126.323c0.519-3.388,4.454-5.055,7.241-3.033l8.307,5.984l2.76,1.967
					c1.448,1.011,2.131,2.732,1.885,4.454c-4.891,32.763,6.203,67.383,33.801,94.517c32.107,31.342,72.275,43.638,115.913,47.218
					c22.925,1.995,44.376-1.476,64.705-8.799c14.154-5.082,27.789-12.023,40.932-20.193
					c47.108-29.402,86.156-68.312,125.941-106.512l35.085-36.698c33.719-33.719,66.837-66.809,106.622-93.232
					c1.366-0.847,2.733-1.858,4.099-2.705c37.572-24.319,77.849-41.671,123.099-44.02c51.59-2.732,99.545,8.798,141.953,39.184
					c17.242,12.515,31.998,26.779,43.638,42.873c3.716,5.028,7.077,10.165,10.083,15.548c0.109,0.191,0.218,0.383,0.328,0.574
					c6.831,11.913,12.16,24.674,16.122,38.446c0.055,0.218,0.137,0.437,0.191,0.656c1.53,5.246,2.815,10.711,3.771,16.312
					c0.246,1.257,0.492,2.624,0.738,3.853C951.419,492.446,940.899,537.067,915.35,577.863z"/>
			</g>
		</g>
	</g>
	<g>
		<g>
			<g>
				<g>
					<path fill="#FFFFFF" d="M379.79,329.191c-30.568-21.279-63.974-36.975-102.047-44.434c-33.451-6.452-66.445-5.949-98.57,6.223
						c-36.426,13.865-65.164,36.334-86.306,66.4c-3.478,4.896,0,11.715,5.995,11.715h45.395c1.144,0,2.243-0.275,3.249-0.778
						c29.287-14.689,59.764-20.181,84.841-20.409c42.467-0.137,78.481,6.956,110.513,20.593c0.869,0.366,1.831,0.595,2.837,0.595
						h21.142c3.203,0,6.04-2.059,7.047-5.125l8.649-26.358c0.229-0.778,0.366-1.556,0.366-2.38
						C382.902,332.898,381.758,330.61,379.79,329.191z"/>
				</g>
			</g>
		</g>
	</g>
	<path fill="#FFFFFF" d="M919.68,437.371l-22.286,16.199h-0.046c-8.969-36.7-31.941-57.339-50.474-68.367h34.778
		c0.366,0.229,0.595,0.504,0.961,0.732C900.735,400.579,913.091,418.426,919.68,437.371z"/>
	<path opacity="0.82" fill="#FFFFFF" enable-background="new    " d="M777.72,940.13c-3.066,0.229-6.269-0.549-9.198-2.7
		l-31.072-22.56L508.324,748.436c-4.942-3.615-11.669-3.615-16.611,0L344.041,855.654l-28.326,20.547l174.983-168.559
		c4.773-4.598,12.264-4.801,17.279-0.47L777.72,940.13z"/>
</g>
</svg>
